<svg width="572" height="302" viewBox="0 0 572 302" fill="none" xmlns="http://www.w3.org/2000/svg">
    <path
        d="M26.872 263.555C26.715 263.652 26.1956 265.146 25.7124 266.871C23.6832 273.989 21.1105 276.601 14.129 278.654C10.3363 279.771 10.3484 279.771 10.3484 280.366C10.3484 281.047 10.7349 281.241 13.8512 282.152C21.2071 284.278 23.6228 286.695 25.7124 293.983C26.6425 297.238 26.8357 297.627 27.5122 297.627C28.104 297.627 28.104 297.639 29.2152 293.825C31.2686 286.756 33.7327 284.302 40.9074 282.188C44.2652 281.205 44.2894 281.192 44.2894 280.488C44.2894 279.698 44.8329 279.941 38.7332 278.046C33.7447 276.492 30.8821 273.175 29.179 266.993C28.1644 263.312 27.8745 262.887 26.872 263.555Z"
        fill="#F2F2F2" />
    <path
        d="M71.0764 149.072C70.9705 149.138 70.6203 150.145 70.2944 151.308C68.9259 156.109 67.1908 157.87 62.4823 159.255C59.9245 160.008 59.9326 160.008 59.9326 160.41C59.9326 160.869 60.1933 161 62.295 161.614C67.2559 163.048 68.8851 164.678 70.2944 169.593C70.9217 171.789 71.052 172.051 71.5082 172.051C71.9073 172.051 71.9073 172.059 72.6568 169.487C74.0416 164.719 75.7034 163.064 80.5422 161.639C82.8068 160.975 82.8231 160.967 82.8231 160.492C82.8231 159.959 83.1896 160.123 79.0759 158.845C75.7116 157.797 73.7809 155.56 72.6323 151.39C71.9481 148.908 71.7526 148.621 71.0764 149.072Z"
        fill="#F2F2F2" />
    <path
        d="M14.0764 3.07203C13.9705 3.13756 13.6203 4.14519 13.2944 5.30847C11.9259 10.109 10.1908 11.8703 5.48234 13.2548C2.92447 14.0085 2.93262 14.0085 2.93262 14.4099C2.93262 14.8686 3.19329 14.9997 5.29498 15.6141C10.2559 17.0477 11.8851 18.678 13.2944 23.5932C13.9217 25.7887 14.052 26.0508 14.5082 26.0508C14.9073 26.0508 14.9073 26.059 15.6568 23.4867C17.0416 18.7189 18.7034 17.0641 23.5422 15.6387C25.8068 14.9751 25.8231 14.9669 25.8231 14.4918C25.8231 13.9593 26.1896 14.1232 22.0759 12.8452C18.7116 11.7966 16.7809 9.56016 15.6323 5.39039C14.9481 2.90818 14.7526 2.62146 14.0764 3.07203Z"
        fill="#F2F2F2" />
    <path
        d="M508.62 60.7542C508.525 60.813 508.211 61.7164 507.919 62.7593C506.692 67.0633 505.137 68.6424 500.915 69.8836C498.622 70.5593 498.629 70.5593 498.629 70.9192C498.629 71.3305 498.863 71.448 500.747 71.9989C505.195 73.2842 506.656 74.7458 507.919 79.1525C508.482 81.1209 508.598 81.3559 509.007 81.3559C509.365 81.3559 509.365 81.3633 510.037 79.0571C511.279 74.7825 512.769 73.2989 517.107 72.0209C519.137 71.426 519.152 71.4186 519.152 70.9926C519.152 70.5152 519.481 70.6621 515.792 69.5164C512.776 68.5763 511.045 66.5712 510.015 62.8328C509.402 60.6073 509.227 60.3503 508.62 60.7542Z"
        fill="#F2F2F2" />
    <path
        d="M558.62 177.754C558.525 177.813 558.211 178.716 557.919 179.759C556.692 184.063 555.137 185.642 550.915 186.884C548.622 187.559 548.629 187.559 548.629 187.919C548.629 188.331 548.863 188.448 550.747 188.999C555.195 190.284 556.656 191.746 557.919 196.153C558.482 198.121 558.598 198.356 559.007 198.356C559.365 198.356 559.365 198.363 560.037 196.057C561.279 191.783 562.769 190.299 567.107 189.021C569.137 188.426 569.152 188.419 569.152 187.993C569.152 187.515 569.481 187.662 565.792 186.516C562.776 185.576 561.045 183.571 560.015 179.833C559.402 177.607 559.227 177.35 558.62 177.754Z"
        fill="#F2F2F2" />
    <path
        d="M469.193 214.225C469.117 214.272 468.863 215.002 468.627 215.844C467.636 219.32 466.379 220.596 462.97 221.598C461.118 222.144 461.124 222.144 461.124 222.435C461.124 222.767 461.312 222.862 462.834 223.307C466.427 224.345 467.606 225.525 468.627 229.085C469.081 230.675 469.176 230.864 469.506 230.864C469.795 230.864 469.795 230.87 470.338 229.008C471.34 225.555 472.544 224.357 476.048 223.325C477.688 222.844 477.699 222.838 477.699 222.494C477.699 222.108 477.965 222.227 474.986 221.302C472.55 220.542 471.152 218.923 470.32 215.903C469.824 214.106 469.683 213.898 469.193 214.225Z"
        fill="#F2F2F2" />
</svg>
